<svg xmlns="http://www.w3.org/2000/svg" viewBox="0 0 100 100">
  <defs>
    <linearGradient id="berryGradient" x1="0%" y1="0%" x2="100%" y2="100%">
      <stop offset="0%" style="stop-color:#6B21A8"/>
      <stop offset="50%" style="stop-color:#A855F7"/>
      <stop offset="100%" style="stop-color:#EC4899"/>
    </linearGradient>
    <linearGradient id="leafGradient" x1="0%" y1="0%" x2="100%" y2="100%">
      <stop offset="0%" style="stop-color:#166534"/>
      <stop offset="100%" style="stop-color:#22C55E"/>
    </linearGradient>
  </defs>
  
  <!-- Leaf/stem -->
  <path d="M50 8 Q60 5 65 15 Q55 12 50 18" fill="url(#leafGradient)"/>
  
  <!-- Berry drupelets forming heart shape -->
  <!-- Top row -->
  <circle cx="35" cy="30" r="10" fill="url(#berryGradient)" opacity="0.9"/>
  <circle cx="50" cy="25" r="9" fill="url(#berryGradient)" opacity="0.95"/>
  <circle cx="65" cy="30" r="10" fill="url(#berryGradient)" opacity="0.9"/>
  
  <!-- Second row -->
  <circle cx="28" cy="42" r="10" fill="url(#berryGradient)" opacity="0.85"/>
  <circle cx="42" cy="40" r="9" fill="url(#berryGradient)" opacity="0.9"/>
  <circle cx="58" cy="40" r="9" fill="url(#berryGradient)" opacity="0.9"/>
  <circle cx="72" cy="42" r="10" fill="url(#berryGradient)" opacity="0.85"/>
  
  <!-- Third row -->
  <circle cx="32" cy="55" r="9" fill="url(#berryGradient)" opacity="0.8"/>
  <circle cx="50" cy="52" r="10" fill="url(#berryGradient)" opacity="0.95"/>
  <circle cx="68" cy="55" r="9" fill="url(#berryGradient)" opacity="0.8"/>
  
  <!-- Fourth row -->
  <circle cx="38" cy="67" r="8" fill="url(#berryGradient)" opacity="0.85"/>
  <circle cx="50" cy="65" r="9" fill="url(#berryGradient)" opacity="0.9"/>
  <circle cx="62" cy="67" r="8" fill="url(#berryGradient)" opacity="0.85"/>
  
  <!-- Bottom point of heart -->
  <circle cx="45" cy="78" r="7" fill="url(#berryGradient)" opacity="0.8"/>
  <circle cx="55" cy="78" r="7" fill="url(#berryGradient)" opacity="0.8"/>
  <circle cx="50" cy="88" r="6" fill="url(#berryGradient)" opacity="0.9"/>
  
  <!-- Shine effects -->
  <circle cx="38" cy="28" r="3" fill="white" opacity="0.4"/>
  <circle cx="62" cy="28" r="3" fill="white" opacity="0.4"/>
</svg>
