<svg xmlns="http://www.w3.org/2000/svg" viewBox="0 0 100 100">
  <defs>
    <linearGradient id="gradient" x1="0%" y1="0%" x2="100%" y2="100%">
      <stop offset="0%" style="stop-color:#e11d74;stop-opacity:1" />
      <stop offset="100%" style="stop-color:#be185d;stop-opacity:1" />
    </linearGradient>
  </defs>
  <rect width="100" height="100" rx="20" fill="#0a0a0f"/>
  <path d="M50 25 C35 25 25 38 25 50 C25 70 50 80 50 80 C50 80 75 70 75 50 C75 38 65 25 50 25 Z" fill="url(#gradient)"/>
  <path d="M50 35 C42 35 35 42 35 50 C35 62 50 70 50 70 C50 70 65 62 65 50 C65 42 58 35 50 35 Z" fill="#0a0a0f"/>
  <circle cx="50" cy="50" r="8" fill="url(#gradient)"/>
</svg>
